<svg id="Capa_1" data-name="Capa 1" xmlns="http://www.w3.org/2000/svg" viewBox="0 0 1000 352.54"><defs><style>.cls-1{fill:#fff;}.cls-2{fill:#e6e6e6;}</style></defs><path class="cls-1" d="M68.14,187.83l-1.45,15.51q-13.39-.22-27.11-.22a19,19,0,0,0-5.7.55A2.27,2.27,0,0,0,32.43,206a3.19,3.19,0,0,0,1.4,2.62,24.92,24.92,0,0,0,5.3,2.62l13.95,5.8q9.48,4.14,13.39,9.49t3.9,13.94q0,8.82-2.9,13.9t-9.71,7.36Q51,264,38.91,264a119.42,119.42,0,0,1-29.8-3.79l1.45-17q22.1.57,28,.56a20.73,20.73,0,0,0,6.08-.56,2.08,2.08,0,0,0,1.51-2.12,3.39,3.39,0,0,0-1.06-2.56,12.69,12.69,0,0,0-4.19-2.12l-15.28-6.7q-9.37-4.12-13.28-9.42T8.44,206.57q0-8.81,3.07-13.66T21.39,186q6.8-2.07,18.74-2.07Q57,183.92,68.14,187.83Z"/><path class="cls-1" d="M133.92,187.38A21.35,21.35,0,0,1,145,199.43q3.45,8.59,3.46,24.55T145,248.53q-3.47,8.59-11.1,12T112.55,264q-13.62,0-21.26-3.46a21.25,21.25,0,0,1-11.1-12q-3.47-8.59-3.46-24.55t3.46-24.55a21.31,21.31,0,0,1,11.1-12.05q7.65-3.45,21.26-3.46T133.92,187.38Zm-27.79,16.35c-1.45,1.23-2.47,3.38-3.07,6.47a79.25,79.25,0,0,0-.89,13.78,79.17,79.17,0,0,0,.89,13.78q.9,4.63,3.07,6.47t6.42,1.84q4.23,0,6.41-1.84c1.45-1.22,2.48-3.38,3.07-6.47a78.18,78.18,0,0,0,.89-13.78A78.25,78.25,0,0,0,122,210.2c-.59-3.09-1.62-5.24-3.07-6.47s-3.59-1.84-6.41-1.84S107.58,202.5,106.13,203.73Z"/><path class="cls-1" d="M204.49,184.82a82.45,82.45,0,0,1,11.38,2.34l-1.79,17.63c-1.71,0-3,0-3.9-.11l-19.64-.11a9.31,9.31,0,0,0-5.91,1.61q-2,1.62-2.79,5.69a69.58,69.58,0,0,0-.78,12.11,69.58,69.58,0,0,0,.78,12.11q.78,4.07,2.79,5.69a9.25,9.25,0,0,0,5.91,1.62q9.15,0,14.56-.17t10.66-.73l1.78,17.63A64.77,64.77,0,0,1,205.6,263a111.94,111.94,0,0,1-15.06.84q-12.94,0-20.53-3.85a22.75,22.75,0,0,1-11-12.5q-3.41-8.64-3.4-23.49t3.4-23.49A22.7,22.7,0,0,1,170,188q7.59-3.85,20.53-3.85A114.51,114.51,0,0,1,204.49,184.82Z"/><path class="cls-1" d="M249.45,262.48h-24v-77h24Z"/><path class="cls-1" d="M304,245.85H282.93L279,262.48H254.36l20-70.75a8.42,8.42,0,0,1,3-4.51,8.11,8.11,0,0,1,5.13-1.73h22a8.12,8.12,0,0,1,5.14,1.73,8.48,8.48,0,0,1,3,4.51l20,70.75H307.92Zm-3.91-17-3.79-16.51q-1-5.25-1.34-8.82h-3q-.68,5.25-1.34,8.82l-3.8,16.51Z"/><path class="cls-1" d="M361.37,239.27a3.67,3.67,0,0,0,1.28,2.9,5,5,0,0,0,3.41,1.11h25.88l1.12,18.08a162.18,162.18,0,0,1-16.18,1.28q-8.6.28-21.42.28-8.26,0-13.28-4.85a16.83,16.83,0,0,1-5-12.67V185.49h24.21Z"/><path class="cls-1" d="M458,218.07v44.41H447.62l-1.23-7.59a36.71,36.71,0,0,1-9.59,6.36,30.16,30.16,0,0,1-12.95,2.68q-12.72,0-18.41-9.66t-5.69-30.62q0-15.51,3.24-24.05t10.43-12q7.2-3.51,20-3.51a83.49,83.49,0,0,1,22.09,2.56L454.43,197q-10.94-.67-20.31-.67-8,0-12.05,1.9T416.21,206q-1.84,5.91-1.84,18.41a81.83,81.83,0,0,0,1.28,16.4q1.29,5.91,4.3,8.48t8.25,2.57a23.75,23.75,0,0,0,8.26-1.4,43.63,43.63,0,0,0,7.92-4V218.07Z"/><path class="cls-1" d="M530.75,262.48H515.91l-6.14-23.88a10,10,0,0,0-3.24-5.3,9.13,9.13,0,0,0-5.69-1.62H487v30.8H473.17v-77q6.25-.68,11.88-.84t16.13-.17q9.81,0,15.56,2a15,15,0,0,1,8.48,6.92Q528,198.32,528,207q0,8.92-3.35,13.67t-11.05,5.75V227a13.51,13.51,0,0,1,6.25,3.57,15.12,15.12,0,0,1,4,7.82ZM508.65,219a6.85,6.85,0,0,0,4-3.69,18.71,18.71,0,0,0,1.17-7.42,18.32,18.32,0,0,0-1.17-7.36,6.66,6.66,0,0,0-4-3.57,23.9,23.9,0,0,0-7.81-1H487v24.22h13.83A24.66,24.66,0,0,0,508.65,219Z"/><path class="cls-1" d="M591.11,187.72Q597.92,191.4,601,200t3.07,24q0,15.41-3.07,24t-9.88,12.28q-6.81,3.67-18.86,3.68t-18.85-3.68q-6.81-3.69-9.82-12.28t-3-24q0-15.39,3-24t9.82-12.27q6.79-3.69,18.85-3.68T591.11,187.72Zm-29.06,10.82q-3.63,2.57-5.19,8.54T555.3,224q0,10.94,1.56,16.91t5.19,8.53q3.62,2.57,10.2,2.57t10.33-2.57q3.61-2.56,5.19-8.53T589.33,224q0-10.93-1.56-16.9t-5.19-8.54Q578.95,196,572.25,196T562.05,198.54Z"/><path class="cls-1" d="M700.57,258.57a5,5,0,0,1-1.84,2.85,5.33,5.33,0,0,1-3.29,1.06H680.82a5.28,5.28,0,0,1-3.34-1.12,4.59,4.59,0,0,1-1.79-2.9L666,204.79q-.56-3-1.45-9H662.3q-1,6.48-1.45,9l-9.6,53.67a4.62,4.62,0,0,1-1.78,2.9,5.48,5.48,0,0,1-3.46,1.12H631.5a5.54,5.54,0,0,1-3.34-1.06,4.41,4.41,0,0,1-1.79-2.85l-13.28-73.08H627.6l9.15,56.12q.66,3.79,1.23,10.49h2.34q1-6.47,1.78-10.49L651.59,190a5.32,5.32,0,0,1,1.73-3.24,5,5,0,0,1,3.4-1.22h13.61a4.84,4.84,0,0,1,3.29,1.22,5.38,5.38,0,0,1,1.74,3.24l9.48,51.77a102.53,102.53,0,0,1,1.56,10.38h2.46c.29-2,.48-3.64.55-4.91l.67-5.36,9.27-56.34h14.5Z"/><path class="cls-1" d="M988.54,35.66c-.12-.08-.24-.17-.37-.24C988.3,35.49,988.42,35.58,988.54,35.66Z"/><path class="cls-1" d="M989,36c-.15-.12-.31-.21-.47-.32C988.7,35.77,988.86,35.86,989,36Z"/><path class="cls-1" d="M988.17,35.42a7,7,0,0,0-.92-.43A7,7,0,0,1,988.17,35.42Z"/><path class="cls-1" d="M989.06,36,883.45,117.48a14.56,14.56,0,1,1-21.62,16.67L751.85,219v41.8a6.58,6.58,0,0,0,10.86,5l50.47-43.35a6.56,6.56,0,0,1,4.25-1.59l86.37-.39a88.17,88.17,0,0,0,87.76-88.17V41.16A6.53,6.53,0,0,0,989.06,36ZM933.75,144.39a14.57,14.57,0,1,1,14.57-14.56A14.57,14.57,0,0,1,933.75,144.39Z"/><path class="cls-1" d="M989,36l0,0h0Z"/><polyline class="cls-2" points="815.4 221.17 769.66 221.17 799.93 233.8"/><path class="cls-2" d="M861.18,129.83a14.55,14.55,0,0,1,22.27-12.35L989.07,36A6.6,6.6,0,0,0,985,34.58H840a88.17,88.17,0,0,0-88.16,88.17V219l110-84.83A14.72,14.72,0,0,1,861.18,129.83Zm-43.74,14.56A14.57,14.57,0,1,1,832,129.83,14.56,14.56,0,0,1,817.44,144.39Z"/><path class="cls-2" d="M674.75,9.2H586.6a4,4,0,0,0-2.49.87l65,50.13a8.85,8.85,0,0,1,13.62,10.51l65.63,50.62V62.81A53.61,53.61,0,0,0,674.75,9.2ZM690.1,76A8.86,8.86,0,1,1,699,67.11,8.86,8.86,0,0,1,690.1,76Z"/><path class="cls-1" d="M674.75,9.2h0a53.49,53.49,0,0,1,10.81,1.09A53.49,53.49,0,0,0,674.75,9.2Z"/><path class="cls-1" d="M695.62,13.41A54.48,54.48,0,0,1,702.55,17,54.48,54.48,0,0,0,695.62,13.41Z"/><path class="cls-1" d="M685.56,10.29a49.45,49.45,0,0,1,5.13,1.32A49.45,49.45,0,0,0,685.56,10.29Z"/><path class="cls-1" d="M585.59,9.34l.26-.07Z"/><path class="cls-1" d="M584.23,10l.28-.18Z"/><path class="cls-1" d="M584.86,9.61l.29-.13Z"/><path class="cls-1" d="M662.73,70.71A8.86,8.86,0,1,1,649.11,60.2l-65-50.12a4,4,0,0,0-1.52,3.12V68.6A53.6,53.6,0,0,0,636,122.21l52.52.25a4,4,0,0,1,2.59,1l30.69,26.36a4,4,0,0,0,6.6-3V121.33ZM619.17,76A8.86,8.86,0,1,1,628,67.11,8.85,8.85,0,0,1,619.17,76Z"/><polyline class="cls-2" points="689.86 122.86 721.22 122.86 700.46 131.51"/><path class="cls-2" d="M11.72,343.06v-34.9h14a14.44,14.44,0,0,1,3.49.42,7.34,7.34,0,0,1,3,1.57,7.47,7.47,0,0,1,2.09,3.19,16.07,16.07,0,0,1,.75,5.38,15.49,15.49,0,0,1-.56,4.5,7.94,7.94,0,0,1-1.5,2.86,6.36,6.36,0,0,1-2,1.61,11.7,11.7,0,0,1-2.2.83l7,14.54H30.86l-6.44-13.88c-.48,0-1.05,0-1.73,0s-1.39,0-2.13,0-1.47,0-2.18-.05-1.34,0-1.87,0v14Zm4.79-17.71h8.43a8,8,0,0,0,2.08-.26,3.83,3.83,0,0,0,1.68-1,5,5,0,0,0,1.16-2,10.75,10.75,0,0,0,.43-3.34,9.86,9.86,0,0,0-.43-3.22,4.42,4.42,0,0,0-1.18-1.9,4.32,4.32,0,0,0-1.71-.92,7.78,7.78,0,0,0-2-.26H16.51Z"/><path class="cls-2" d="M53.3,343.25a16.23,16.23,0,0,1-2.51-.21,7.68,7.68,0,0,1-2.53-.9,5.09,5.09,0,0,1-2-2.11,8.16,8.16,0,0,1-.76-3.84V315.45a8.42,8.42,0,0,1,.64-3.5,5.75,5.75,0,0,1,1.68-2.25,6.33,6.33,0,0,1,2.34-1.19,9.65,9.65,0,0,1,2.58-.35c2.06,0,3.94.07,5.66.11s3.33.11,4.81.17l4.26.19v3.93H54.06a3.92,3.92,0,0,0-2.74.9,3.63,3.63,0,0,0-1,2.84v7.25l15.06.28v3.7l-15.06.33V335a4.31,4.31,0,0,0,.55,2.42,2.67,2.67,0,0,0,1.42,1.08,6,6,0,0,0,1.87.29H67.51v3.93c-1.45.09-3,.18-4.59.26s-3.23.14-4.86.19S54.85,343.25,53.3,343.25Z"/><path class="cls-2" d="M78.22,343.06v-34.9H92.38a13.57,13.57,0,0,1,3.22.4,7.58,7.58,0,0,1,3.05,1.56,8.06,8.06,0,0,1,2.25,3.44,21.61,21.61,0,0,1,0,12.07,8.62,8.62,0,0,1-2.3,3.55,7.39,7.39,0,0,1-3.08,1.66,12.43,12.43,0,0,1-3.17.43c-.51,0-1.19,0-2.06,0s-1.78-.08-2.72-.14l-2.66-.19c-.82-.06-1.45-.13-1.89-.19v12.36ZM83,327h8.67a5.39,5.39,0,0,0,2.72-.69,4.61,4.61,0,0,0,1.89-2.27,11.44,11.44,0,0,0,.69-4.43,11.09,11.09,0,0,0-.69-4.36,4.38,4.38,0,0,0-1.82-2.2,5,5,0,0,0-2.51-.64H83Z"/><path class="cls-2" d="M124.39,343.35a25,25,0,0,1-5.3-.53,10.93,10.93,0,0,1-4.17-1.77,7.93,7.93,0,0,1-2.68-3.44,14.23,14.23,0,0,1-.92-5.49v-24h4.78v23.91a7.77,7.77,0,0,0,1,4.2,5.37,5.37,0,0,0,2.85,2.13,14,14,0,0,0,4.47.64,14.18,14.18,0,0,0,4.52-.64,5.37,5.37,0,0,0,2.85-2.13,7.77,7.77,0,0,0,1-4.2V308.16h4.78v24a13.83,13.83,0,0,1-.95,5.49,8.13,8.13,0,0,1-2.67,3.44,10.77,10.77,0,0,1-4.15,1.77A25.19,25.19,0,0,1,124.39,343.35Z"/><path class="cls-2" d="M156.41,343.06V312.42H146v-4.26h25.62v4.26H161.19v30.64Z"/><path class="cls-2" d="M176.11,343.06l11.65-34.9h6.06l11.65,34.9h-5l-3.08-9.14H184.07l-3,9.14Zm9.09-13.45h11l-5.5-17.29Z"/><path class="cls-2" d="M220.39,343.06V312.42H210v-4.26h25.62v4.26H225.17v30.64Z"/><path class="cls-2" d="M244.54,343.06v-34.9h4.79v34.9Z"/><path class="cls-2" d="M273.86,343.35a24.3,24.3,0,0,1-6-.67,8.88,8.88,0,0,1-4.31-2.46,11.49,11.49,0,0,1-2.58-5.3,50.21,50.21,0,0,1,0-18.4,11.76,11.76,0,0,1,2.6-5.4,9,9,0,0,1,4.31-2.56,23.1,23.1,0,0,1,6-.69,23.81,23.81,0,0,1,6.09.69,8.68,8.68,0,0,1,4.28,2.56,12,12,0,0,1,2.56,5.4,50.21,50.21,0,0,1,0,18.4,11.49,11.49,0,0,1-2.58,5.3,8.88,8.88,0,0,1-4.31,2.46A24.55,24.55,0,0,1,273.86,343.35Zm0-4.27a14.56,14.56,0,0,0,4.19-.52,5.4,5.4,0,0,0,2.8-1.92,9.28,9.28,0,0,0,1.53-4,39.79,39.79,0,0,0,.48-6.89,41.56,41.56,0,0,0-.5-7.2,9.54,9.54,0,0,0-1.54-4.07,5,5,0,0,0-2.77-1.85,15.87,15.87,0,0,0-4.19-.47,15,15,0,0,0-4,.47,5.26,5.26,0,0,0-2.79,1.85,9.5,9.5,0,0,0-1.63,4.07,37.29,37.29,0,0,0-.55,7.2,42.4,42.4,0,0,0,.45,6.89,9.16,9.16,0,0,0,1.52,4,5.34,5.34,0,0,0,2.79,1.92A14.79,14.79,0,0,0,273.86,339.08Z"/><path class="cls-2" d="M298.91,343.06v-34.9h3.89l17.09,26.76V308.16h4.74v34.9h-3.84L303.7,316.3v26.76Z"/><path class="cls-2" d="M352.14,343.06l4-34.9h4.74l8.9,29.12,8.76-29.12h4.79l4.07,34.9h-4.59L379.38,314l.8.1-8.24,29h-4.4l-8.39-29L360,314l-3.27,29Z"/><path class="cls-2" d="M396,343.06l11.65-34.9h6.06l11.65,34.9h-5l-3.08-9.14H404l-3,9.14Zm9.09-13.45h11l-5.5-17.29Z"/><path class="cls-2" d="M435.45,343.06v-34.9h3.88l17.1,26.76V308.16h4.74v34.9h-3.84l-17.1-26.76v26.76Z"/><path class="cls-2" d="M470.21,343.06l11.65-34.9h6.06l11.66,34.9h-5l-3.08-9.14H478.17l-3,9.14Zm9.1-13.45h11l-5.49-17.29Z"/><path class="cls-2" d="M518.9,343.3a11.28,11.28,0,0,1-5.47-1.09,8.19,8.19,0,0,1-3.39-3.36,16.54,16.54,0,0,1-1.73-5.57,53.41,53.41,0,0,1-.49-7.74,48.14,48.14,0,0,1,.54-7.67,15.89,15.89,0,0,1,1.87-5.55A8.25,8.25,0,0,1,514,309a14,14,0,0,1,6-1.12c1.36,0,2.7.05,4,.14s2.61.25,3.86.45,2.42.44,3.52.69v3.65c-.63-.1-1.51-.19-2.65-.29s-2.39-.18-3.76-.26-2.77-.11-4.19-.11a8.38,8.38,0,0,0-5.07,1.3,7.07,7.07,0,0,0-2.44,4.26,36.05,36.05,0,0,0-.69,7.89,46.51,46.51,0,0,0,.38,6.51,11.61,11.61,0,0,0,1.23,4.07,4.85,4.85,0,0,0,2.35,2.13,9.51,9.51,0,0,0,3.76.64,18.18,18.18,0,0,0,4.33-.52c1.44-.35,2.66-.69,3.68-1v-9.24h-7.77V324.5q.94-.15,2.25-.24l2.74-.17c1,0,1.94-.07,2.92-.07s1.69,0,2.44.05,1.41.08,2,.14v18.85h-3.55l-.71-2.41a34.16,34.16,0,0,1-4.17,1.7A17.69,17.69,0,0,1,518.9,343.3Z"/><path class="cls-2" d="M552.29,343.25a16,16,0,0,1-2.51-.21,7.65,7.65,0,0,1-2.54-.9,5.09,5.09,0,0,1-2-2.11,8.16,8.16,0,0,1-.76-3.84V315.45a8.42,8.42,0,0,1,.64-3.5,5.94,5.94,0,0,1,1.68-2.25,6.41,6.41,0,0,1,2.34-1.19,9.67,9.67,0,0,1,2.59-.35l5.66.11c1.72.05,3.32.11,4.8.17l4.26.19v3.93H553a3.93,3.93,0,0,0-2.74.9,3.63,3.63,0,0,0-1,2.84v7.25l15.06.28v3.7l-15.06.33V335a4.31,4.31,0,0,0,.55,2.42,2.67,2.67,0,0,0,1.42,1.08,6,6,0,0,0,1.87.29h13.35v3.93c-1.45.09-3,.18-4.59.26s-3.23.14-4.85.19S553.83,343.25,552.29,343.25Z"/><path class="cls-2" d="M576.25,343.06l4-34.9H585l8.91,29.12,8.76-29.12h4.78l4.08,34.9h-4.6L603.48,314l.81.1-8.24,29h-4.41l-8.38-29,.85-.05-3.27,29Z"/><path class="cls-2" d="M629,343.25a16,16,0,0,1-2.51-.21,7.6,7.6,0,0,1-2.53-.9,5.11,5.11,0,0,1-2-2.11,8.28,8.28,0,0,1-.76-3.84V315.45a8.58,8.58,0,0,1,.64-3.5,5.94,5.94,0,0,1,1.68-2.25,6.45,6.45,0,0,1,2.35-1.19,9.65,9.65,0,0,1,2.58-.35l5.66.11c1.72.05,3.32.11,4.81.17l4.26.19v3.93H629.77a3.94,3.94,0,0,0-2.75.9,3.67,3.67,0,0,0-1,2.84v7.25l15.06.28v3.7l-15.06.33V335a4.4,4.4,0,0,0,.54,2.42,2.7,2.7,0,0,0,1.42,1.08,6,6,0,0,0,1.87.29h13.36v3.93c-1.45.09-3,.18-4.6.26s-3.22.14-4.85.19S630.56,343.25,629,343.25Z"/><path class="cls-2" d="M654.44,343.06v-34.9h3.89l17.09,26.76V308.16h4.74v34.9h-3.84L659.23,316.3v26.76Z"/><path class="cls-2" d="M699,343.06V312.42H688.59v-4.26h25.62v4.26H703.79v30.64Z"/></svg>