<svg id="Capa_1" data-name="Capa 1" xmlns="http://www.w3.org/2000/svg" viewBox="0 0 1000 352.54"><defs><style>.cls-1{fill:#ed3924;}.cls-2{fill:#23508a;}.cls-3{fill:#20355c;}.cls-4{fill:#fff;}</style></defs><path class="cls-1" d="M64.45,186.5,63,202.14q-13.5-.22-27.35-.22a19.14,19.14,0,0,0-5.74.56,2.28,2.28,0,0,0-1.46,2.36,3.2,3.2,0,0,0,1.41,2.65,25.55,25.55,0,0,0,5.34,2.64L49.26,216q9.56,4.17,13.5,9.57t3.94,14.07q0,8.88-2.92,14T54,261.05q-6.87,2.31-19,2.31a120.48,120.48,0,0,1-30-3.82l1.46-17.11q22.29.57,28.25.56a21,21,0,0,0,6.13-.56,2.1,2.1,0,0,0,1.52-2.14,3.43,3.43,0,0,0-1.07-2.59A13,13,0,0,0,37,235.57l-15.41-6.76q-9.46-4.16-13.4-9.51T4.25,205.41q0-8.9,3.09-13.79t10-7q6.86-2.07,18.91-2.08Q53.19,182.56,64.45,186.5Z"/><path class="cls-1" d="M130.79,186.05A21.51,21.51,0,0,1,142,198.2q3.48,8.67,3.48,24.76T142,247.72q-3.5,8.67-11.2,12.15t-21.55,3.49q-13.74,0-21.44-3.49T76.6,247.72q-3.48-8.67-3.49-24.76T76.6,198.2a21.51,21.51,0,0,1,11.2-12.15q7.71-3.48,21.44-3.49T130.79,186.05Zm-28,16.49c-1.47,1.23-2.5,3.41-3.1,6.52a79.45,79.45,0,0,0-.9,13.9,79.37,79.37,0,0,0,.9,13.9q.9,4.66,3.1,6.53t6.47,1.85q4.28,0,6.47-1.85t3.09-6.53a79.37,79.37,0,0,0,.9-13.9,79.45,79.45,0,0,0-.9-13.9c-.6-3.11-1.63-5.29-3.09-6.52s-3.62-1.86-6.47-1.86S104.23,201.3,102.77,202.54Z"/><path class="cls-1" d="M202,183.46a83.71,83.71,0,0,1,11.48,2.37l-1.8,17.78c-1.73,0-3,0-3.94-.12l-19.8-.11a9.4,9.4,0,0,0-6,1.63q-2,1.63-2.81,5.74a69.53,69.53,0,0,0-.79,12.21,69.53,69.53,0,0,0,.79,12.21q.78,4.11,2.81,5.74t6,1.63q9.22,0,14.68-.17t10.75-.73l1.8,17.78a65.22,65.22,0,0,1-12,2.87,113.84,113.84,0,0,1-15.19.85q-13.07,0-20.71-3.89a22.86,22.86,0,0,1-11.08-12.6q-3.44-8.72-3.44-23.69t3.44-23.69a22.89,22.89,0,0,1,11.08-12.6q7.65-3.88,20.71-3.88A116.18,116.18,0,0,1,202,183.46Z"/><path class="cls-1" d="M247.31,261.79H223.12V184.14h24.19Z"/><path class="cls-1" d="M302.34,245H281.07l-3.93,16.77H252.27l20.14-71.35a8.54,8.54,0,0,1,3-4.56,8.21,8.21,0,0,1,5.17-1.74h22.17a8.24,8.24,0,0,1,5.18,1.74,8.6,8.6,0,0,1,3,4.56l20.14,71.35H306.28Zm-3.94-17.11-3.82-16.65q-1-5.3-1.35-8.89h-3q-.68,5.3-1.35,8.89L285,227.91Z"/><path class="cls-1" d="M360.19,238.38a3.71,3.71,0,0,0,1.29,2.93,5,5,0,0,0,3.43,1.12H391l1.13,18.23q-7.66,1-16.32,1.3t-21.61.28q-8.33,0-13.39-4.9t-5.06-12.77V184.14h24.42Z"/><path class="cls-1" d="M457.64,217v44.79H447.17l-1.24-7.66a36.68,36.68,0,0,1-9.67,6.42,30.34,30.34,0,0,1-13.06,2.7q-12.82,0-18.56-9.74t-5.74-30.89q0-15.63,3.26-24.25t10.52-12.15q7.26-3.54,20.2-3.55a84.38,84.38,0,0,1,22.28,2.59L454,195.73q-11-.67-20.48-.68-8.12,0-12.16,1.92t-5.91,7.87q-1.85,6-1.85,18.57A82.31,82.31,0,0,0,414.93,240q1.29,6,4.33,8.56c2,1.72,4.8,2.58,8.33,2.58a23.92,23.92,0,0,0,8.33-1.4,44.12,44.12,0,0,0,8-4V217Z"/><path class="cls-1" d="M531,261.79H516l-6.19-24.09a10.25,10.25,0,0,0-3.26-5.34,9.23,9.23,0,0,0-5.74-1.63h-14v31.06h-14V184.14q6.3-.67,12-.85t16.26-.16q9.9,0,15.7,2a15.08,15.08,0,0,1,8.55,7q2.76,5,2.76,13.73,0,9-3.38,13.78t-11.14,5.8V226a13.6,13.6,0,0,1,6.3,3.6,15.19,15.19,0,0,1,4,7.88ZM508.73,218a6.83,6.83,0,0,0,4-3.71,18.84,18.84,0,0,0,1.18-7.48,18.44,18.44,0,0,0-1.18-7.43,6.63,6.63,0,0,0-4-3.6,24.06,24.06,0,0,0-7.88-1h-14v24.42h14A24.45,24.45,0,0,0,508.73,218Z"/><path class="cls-1" d="M591.89,186.39q6.87,3.71,10,12.38T604.94,223q0,15.53-3.09,24.2t-10,12.38q-6.87,3.7-19,3.71t-19-3.71q-6.86-3.72-9.9-12.38t-3-24.2q0-15.53,3-24.19t9.9-12.38q6.87-3.72,19-3.72T591.89,186.39ZM562.58,197.3q-3.66,2.59-5.24,8.61T555.77,223q0,11,1.57,17t5.24,8.61q3.64,2.59,10.29,2.59t10.41-2.59q3.66-2.6,5.24-8.61t1.57-17q0-11-1.57-17.05t-5.24-8.61q-3.66-2.58-10.41-2.58T562.58,197.3Z"/><path class="cls-1" d="M702.29,257.85a5.05,5.05,0,0,1-1.86,2.87,5.36,5.36,0,0,1-3.32,1.07H682.37a5.38,5.38,0,0,1-3.38-1.13,4.64,4.64,0,0,1-1.8-2.93l-9.79-54.12c-.38-2-.86-5.07-1.46-9.12h-2.25q-1,6.52-1.47,9.12l-9.67,54.12a4.69,4.69,0,0,1-1.8,2.93,5.57,5.57,0,0,1-3.49,1.13H632.63a5.6,5.6,0,0,1-3.38-1.07,4.48,4.48,0,0,1-1.8-2.87l-13.39-73.71h14.63l9.23,56.6q.68,3.82,1.23,10.58h2.37q1-6.52,1.8-10.58l9.56-52.1a5.37,5.37,0,0,1,1.75-3.26,5,5,0,0,1,3.43-1.24h13.73a4.86,4.86,0,0,1,3.32,1.24,5.31,5.31,0,0,1,1.74,3.26l9.57,52.22A101.69,101.69,0,0,1,688,251.32h2.48c.3-2,.49-3.68.56-4.95l.68-5.4,9.34-56.83h14.63Z"/><path class="cls-2" d="M815.85,221.39,765,265.11a6.64,6.64,0,0,1-11-5V120.86A88.92,88.92,0,0,1,842.92,32h146.2a6.63,6.63,0,0,1,6.63,6.63v91.89a88.92,88.92,0,0,1-88.5,88.92l-87.1.4A6.6,6.6,0,0,0,815.85,221.39Z"/><polyline class="cls-3" points="818.1 220.13 771.97 220.13 802.5 232.86"/><path class="cls-3" d="M989.12,32H842.92A88.92,88.92,0,0,0,754,120.86v97.06L993.24,33.39A6.59,6.59,0,0,0,989.12,32Z"/><circle class="cls-4" cx="820.15" cy="128" r="14.69"/><circle class="cls-4" cx="878.96" cy="128" r="14.69"/><circle class="cls-4" cx="937.77" cy="128" r="14.69"/><path class="cls-2" d="M692.7,121.54l30.95,26.59a4,4,0,0,0,6.66-3.06V60.41A54.07,54.07,0,0,0,676.24,6.34h-88.9a4,4,0,0,0-4,4V66.26a54.08,54.08,0,0,0,53.82,54.07l53,.24A4,4,0,0,1,692.7,121.54Z"/><polyline class="cls-3" points="691.48 120.97 723.11 120.97 702.17 129.7"/><path class="cls-3" d="M587.34,6.34h88.9a54.07,54.07,0,0,1,54.07,54.07v59L584.83,7.22A4,4,0,0,1,587.34,6.34Z"/><circle class="cls-4" cx="691.72" cy="64.76" r="8.93"/><circle class="cls-4" cx="655.96" cy="64.76" r="8.93"/><circle class="cls-4" cx="620.19" cy="64.76" r="8.93"/><path class="cls-3" d="M7.55,343.06v-35.2H21.64a14.06,14.06,0,0,1,3.51.43,7.43,7.43,0,0,1,3,1.57,7.63,7.63,0,0,1,2.1,3.23,16,16,0,0,1,.76,5.42,15.29,15.29,0,0,1-.57,4.53A7.78,7.78,0,0,1,29,325.93a6.5,6.5,0,0,1-2,1.63,11.61,11.61,0,0,1-2.22.83l7,14.67H26.85l-6.5-14c-.47,0-1.06,0-1.74,0s-1.4,0-2.15,0-1.48,0-2.2,0-1.34-.05-1.88-.05v14.14Zm4.83-17.87h8.5a7.75,7.75,0,0,0,2.1-.26,3.8,3.8,0,0,0,1.7-1,5.21,5.21,0,0,0,1.17-2.06,11.16,11.16,0,0,0,.43-3.36,10.35,10.35,0,0,0-.43-3.25,4.36,4.36,0,0,0-1.2-1.91,4.19,4.19,0,0,0-1.72-.93,7.52,7.52,0,0,0-2.05-.27h-8.5Z"/><path class="cls-3" d="M49.49,343.25A15.19,15.19,0,0,1,47,343a7.53,7.53,0,0,1-2.56-.9,5.13,5.13,0,0,1-2-2.13,8.24,8.24,0,0,1-.76-3.87V315.21a8.57,8.57,0,0,1,.64-3.53,6,6,0,0,1,1.7-2.27,6.44,6.44,0,0,1,2.36-1.2,9.8,9.8,0,0,1,2.6-.35l5.71.11c1.74,0,3.35.11,4.85.17l4.3.19v4H50.25a4,4,0,0,0-2.77.91,3.67,3.67,0,0,0-1,2.86v7.31l15.19.29v3.72l-15.19.34v7.21a4.33,4.33,0,0,0,.55,2.43,2.63,2.63,0,0,0,1.43,1.1,6.13,6.13,0,0,0,1.89.29H63.82v4c-1.47.1-3,.19-4.63.27s-3.26.14-4.9.19S51.05,343.25,49.49,343.25Z"/><path class="cls-3" d="M74.61,343.06v-35.2H88.89a13.69,13.69,0,0,1,3.25.4,7.55,7.55,0,0,1,3.08,1.58,8,8,0,0,1,2.27,3.46,21.75,21.75,0,0,1,0,12.18,8.6,8.6,0,0,1-2.32,3.58,7.62,7.62,0,0,1-3.1,1.68,13.16,13.16,0,0,1-3.2.42c-.51,0-1.21,0-2.08,0S85,331,84,331s-1.84-.12-2.67-.19-1.47-.12-1.91-.19v12.47Zm4.83-16.19h8.74a5.45,5.45,0,0,0,2.74-.7,4.55,4.55,0,0,0,1.91-2.29,11.38,11.38,0,0,0,.7-4.47,11,11,0,0,0-.7-4.39A4.5,4.5,0,0,0,91,312.8a5.11,5.11,0,0,0-2.54-.65h-9Z"/><path class="cls-3" d="M121.18,343.34a25.49,25.49,0,0,1-5.35-.52,11.25,11.25,0,0,1-4.2-1.79,8,8,0,0,1-2.7-3.46A14.35,14.35,0,0,1,108,332V307.86h4.82V332a7.73,7.73,0,0,0,1,4.22,5.35,5.35,0,0,0,2.87,2.15,16.14,16.14,0,0,0,9.07,0,5.32,5.32,0,0,0,2.87-2.15,7.73,7.73,0,0,0,1-4.22V307.86h4.82V332a14,14,0,0,1-.95,5.55,8.25,8.25,0,0,1-2.7,3.46,11,11,0,0,1-4.18,1.79A25.64,25.64,0,0,1,121.18,343.34Z"/><path class="cls-3" d="M153.47,343.06V312.15H143v-4.29H168.8v4.29H158.3v30.91Z"/><path class="cls-3" d="M173.34,343.06l11.75-35.2h6.12L203,343.06h-5l-3.1-9.22H181.37l-3.06,9.22Zm9.17-13.57h11.13l-5.54-17.43Z"/><path class="cls-3" d="M218,343.06V312.15H207.49v-4.29h25.84v4.29h-10.5v30.91Z"/><path class="cls-3" d="M242.36,343.06v-35.2h4.83v35.2Z"/><path class="cls-3" d="M271.93,343.34a24.7,24.7,0,0,1-6-.66,9,9,0,0,1-4.35-2.49,11.5,11.5,0,0,1-2.6-5.35,50.44,50.44,0,0,1,0-18.55,11.87,11.87,0,0,1,2.62-5.45,9,9,0,0,1,4.35-2.58,23.45,23.45,0,0,1,6-.69,24.22,24.22,0,0,1,6.14.69,8.76,8.76,0,0,1,4.32,2.58,12.37,12.37,0,0,1,2.58,5.45,41,41,0,0,1,.86,9.29,40.58,40.58,0,0,1-.86,9.26,11.51,11.51,0,0,1-2.61,5.35,9,9,0,0,1-4.34,2.49A25,25,0,0,1,271.93,343.34Zm0-4.29a14.88,14.88,0,0,0,4.23-.53,5.37,5.37,0,0,0,2.81-1.93,9.47,9.47,0,0,0,1.56-4.06,41.77,41.77,0,0,0,.47-6.95,41.18,41.18,0,0,0-.5-7.26,9.67,9.67,0,0,0-1.55-4.11,5.06,5.06,0,0,0-2.79-1.86,16.21,16.21,0,0,0-4.23-.48,15.17,15.17,0,0,0-4.06.48,5.28,5.28,0,0,0-2.82,1.86,9.76,9.76,0,0,0-1.65,4.11,38.67,38.67,0,0,0-.55,7.26,41.92,41.92,0,0,0,.46,6.95,9.35,9.35,0,0,0,1.52,4.06,5.43,5.43,0,0,0,2.82,1.93A15,15,0,0,0,271.93,339.05Z"/><path class="cls-3" d="M297.19,343.06v-35.2h3.92l17.24,27v-27h4.78v35.2h-3.87l-17.24-27v27Z"/><path class="cls-3" d="M350.88,343.06l4-35.2h4.78l9,29.37,8.84-29.37h4.82l4.11,35.2h-4.64l-3.43-29.33.81.1-8.31,29.23H366.4L358,313.83l.86-.05-3.3,29.28Z"/><path class="cls-3" d="M395.11,343.06l11.75-35.2H413l11.76,35.2h-5l-3.1-9.22H403.14l-3.06,9.22Zm9.17-13.57h11.13l-5.54-17.43Z"/><path class="cls-3" d="M434.9,343.06v-35.2h3.92l17.24,27v-27h4.77v35.2H457l-17.25-27v27Z"/><path class="cls-3" d="M470,343.06l11.75-35.2h6.11l11.75,35.2h-5l-3.11-9.22H478l-3.06,9.22Zm9.17-13.57h11.13l-5.54-17.43Z"/><path class="cls-3" d="M519.06,343.3a11.49,11.49,0,0,1-5.52-1.1,8.31,8.31,0,0,1-3.41-3.39,16.76,16.76,0,0,1-1.75-5.62,54.07,54.07,0,0,1-.5-7.8,49,49,0,0,1,.55-7.74,16,16,0,0,1,1.89-5.59,8.35,8.35,0,0,1,3.75-3.37,14.29,14.29,0,0,1,6-1.12c1.37,0,2.72.05,4.06.14s2.63.25,3.89.46,2.45.43,3.56.69v3.68c-.64-.1-1.53-.19-2.67-.29s-2.42-.18-3.8-.26-2.79-.12-4.23-.12a8.51,8.51,0,0,0-5.11,1.31,7.12,7.12,0,0,0-2.46,4.3,36.66,36.66,0,0,0-.69,7.95A47.24,47.24,0,0,0,513,332a12,12,0,0,0,1.24,4.11,4.93,4.93,0,0,0,2.37,2.15,9.67,9.67,0,0,0,3.79.64,18.6,18.6,0,0,0,4.38-.52c1.44-.35,2.68-.7,3.7-1.05V328h-7.84v-3.68c.64-.09,1.4-.17,2.27-.23s1.8-.12,2.77-.17,1.95-.07,2.94-.07,1.71,0,2.46,0,1.42.08,2,.15v19h-3.58l-.72-2.44a32.37,32.37,0,0,1-4.2,1.72A17.72,17.72,0,0,1,519.06,343.3Z"/><path class="cls-3" d="M552.73,343.25a15.28,15.28,0,0,1-2.53-.22,7.48,7.48,0,0,1-2.55-.9,5.09,5.09,0,0,1-2-2.13,8.24,8.24,0,0,1-.76-3.87V315.21a8.57,8.57,0,0,1,.64-3.53,6,6,0,0,1,1.7-2.27,6.52,6.52,0,0,1,2.36-1.2,9.87,9.87,0,0,1,2.61-.35l5.71.11c1.73,0,3.35.11,4.84.17l4.3.19v4H553.5a4,4,0,0,0-2.77.91,3.67,3.67,0,0,0-1,2.86v7.31l15.19.29v3.72l-15.19.34v7.21a4.41,4.41,0,0,0,.55,2.43,2.69,2.69,0,0,0,1.44,1.1,6.07,6.07,0,0,0,1.88.29h13.47v4c-1.46.1-3,.19-4.63.27s-3.26.14-4.9.19S554.29,343.25,552.73,343.25Z"/><path class="cls-3" d="M576.9,343.06l4-35.2h4.78l9,29.37,8.84-29.37h4.82l4.11,35.2h-4.63l-3.44-29.33.81.1-8.31,29.23h-4.44L584,313.83l.86-.05-3.29,29.28Z"/><path class="cls-3" d="M630.11,343.25a15.28,15.28,0,0,1-2.53-.22,7.48,7.48,0,0,1-2.55-.9,5.09,5.09,0,0,1-2-2.13,8.24,8.24,0,0,1-.76-3.87V315.21a8.57,8.57,0,0,1,.64-3.53,6,6,0,0,1,1.7-2.27,6.52,6.52,0,0,1,2.36-1.2,9.87,9.87,0,0,1,2.61-.35l5.7.11c1.74,0,3.36.11,4.85.17l4.3.19v4H630.88a3.94,3.94,0,0,0-2.77.91,3.67,3.67,0,0,0-1,2.86v7.31l15.19.29v3.72l-15.19.34v7.21a4.41,4.41,0,0,0,.55,2.43,2.7,2.7,0,0,0,1.43,1.1,6.13,6.13,0,0,0,1.89.29h13.47v4c-1.46.1-3,.19-4.63.27s-3.26.14-4.9.19S631.67,343.25,630.11,343.25Z"/><path class="cls-3" d="M655.76,343.06v-35.2h3.92l17.24,27v-27h4.78v35.2h-3.87l-17.24-27v27Z"/><path class="cls-3" d="M700.71,343.06V312.15H690.2v-4.29H716v4.29H705.53v30.91Z"/></svg>